<svg viewBox="0 0 32 32" xmlns="http://www.w3.org/2000/svg" aria-hidden="true" role="presentation" focusable="false" style="display: unset; height: 24px; width: 24px; fill: currentcolor; margin-right: 3px;"><path d="M 17 1 v 4.03 l 4.026 -2.324 l 1 1.732 L 17 7.339 v 6.928 l 6 -3.464 V 5 h 2 v 4.648 l 3.49 -2.014 l 1 1.732 L 26 11.381 l 4.026 2.325 l -1 1.732 L 24 12.535 l -6 3.464 l 6 3.465 l 5.026 -2.902 l 1 1.732 L 26 20.618 l 3.49 2.016 l -1 1.732 L 25 22.351 V 27 h -2 v -5.804 l -6 -3.465 v 6.929 l 5.026 2.902 l -1 1.732 L 17 26.97 V 31 h -2 v -4.031 l -4.026 2.325 l -1 -1.732 L 15 24.66 v -6.929 l -6 3.464 V 27 H 7 v -4.65 l -3.49 2.016 l -1 -1.732 l 3.489 -2.016 l -4.025 -2.324 l 1 -1.732 l 5.025 2.901 l 6 -3.464 l -6 -3.464 l -5.025 2.903 l -1 -1.732 L 6 11.38 L 2.51 9.366 l 1 -1.732 L 7 9.648 V 5 h 2 v 5.803 l 6 3.464 V 7.339 L 9.974 4.438 l 1 -1.732 L 15 5.03 V 1 Z"></path></svg>