<svg id="Layer_1" height="512" viewBox="0 0 512 512" width="512" xmlns="http://www.w3.org/2000/svg" data-name="Layer 1"><path d="m474.073 261h-359.073v-169.7a32.5 32.5 0 0 1 65 0v6.7h-15.18a5.9 5.9 0 0 0 -5.82 6.055v17.945h-12.308a5.578 5.578 0 0 0 -5.692 5.8v25.974c0 3.314 2.379 6.224 5.692 6.224h80.087a6.386 6.386 0 0 0 6.221-6.222v-25.976a6.027 6.027 0 0 0 -6.221-5.8h-11.779v-17.945a6.354 6.354 0 0 0 -6.349-6.055h-16.651v-6.7a44.5 44.5 0 0 0 -89 0v169.7h-65.073a31.5 31.5 0 0 0 0 63h12.073v37.568a92.519 92.519 0 0 0 44.564 79.195l-14.174 14.12a5.983 5.983 0 1 0 8.437 8.484l16.818-16.9a92 92 0 0 0 36.718 7.533h227.274a91.985 91.985 0 0 0 37.473-7.858l16.07 16.106a5.989 5.989 0 1 0 8.484-8.454l-13.564-13.449a92.5 92.5 0 0 0 43.9-78.777v-37.568h12.073a31.5 31.5 0 0 0 0-63zm-253.073-113h-68v-14h68zm-18-26h-32v-12h32zm247 239.568a80.549 80.549 0 0 1 -43.733 71.681 5.391 5.391 0 0 0 -1.532.739 79.791 79.791 0 0 1 -35.1 8.012h-227.272a80.36 80.36 0 0 1 -80.363-80.432v-37.568h388zm24.073-49.568h-436.146a19.5 19.5 0 0 1 0-39h436.146a19.5 19.5 0 0 1 0 39z"/><path d="m193 174.339a6 6 0 0 0 -12 0v6.493a6 6 0 0 0 12 0z"/><path d="m171 174.339a6 6 0 0 0 -12 0v6.493a6 6 0 0 0 12 0z"/><path d="m214 174.339a6 6 0 0 0 -12 0v6.493a6 6 0 0 0 12 0z"/><path d="m187 196.478a6 6 0 0 0 -6 6v6.493a6 6 0 0 0 12 0v-6.493a6 6 0 0 0 -6-6z"/><path d="m165 196.478a6 6 0 0 0 -6 6v6.493a6 6 0 0 0 12 0v-6.493a6 6 0 0 0 -6-6z"/><path d="m208 196.478a6 6 0 0 0 -6 6v6.493a6 6 0 0 0 12 0v-6.493a6 6 0 0 0 -6-6z"/></svg>